<?xml version="1.0" encoding="UTF-8" standalone="no"?>
<svg
   xmlns:dc="http://purl.org/dc/elements/1.1/"
   xmlns:cc="http://creativecommons.org/ns#"
   xmlns:rdf="http://www.w3.org/1999/02/22-rdf-syntax-ns#"
   xmlns:svg="http://www.w3.org/2000/svg"
   xmlns="http://www.w3.org/2000/svg"
   xmlns:sodipodi="http://sodipodi.sourceforge.net/DTD/sodipodi-0.dtd"
   xmlns:inkscape="http://www.inkscape.org/namespaces/inkscape"
   id="enOQoVqTZRr1"
   viewBox="0 0 471.79968 471.79968"
   version="1.1"
   sodipodi:docname="GLTO.svg"
   inkscape:version="0.92.5 (2060ec1f9f, 2020-04-08)"
   width="471.79968"
   height="471.79968"
   style="shape-rendering:geometricPrecision;text-rendering:geometricPrecision">
  <metadata
     id="metadata330">
    <rdf:RDF>
      <cc:Work
         rdf:about="">
        <dc:format>image/svg+xml</dc:format>
        <dc:type
           rdf:resource="http://purl.org/dc/dcmitype/StillImage" />
        <dc:title />
      </cc:Work>
    </rdf:RDF>
  </metadata>
  <sodipodi:namedview
     pagecolor="#ffffff"
     bordercolor="#666666"
     borderopacity="1"
     objecttolerance="10"
     gridtolerance="10"
     guidetolerance="10"
     inkscape:pageopacity="0"
     inkscape:pageshadow="2"
     inkscape:window-width="3784"
     inkscape:window-height="2089"
     id="namedview328"
     showgrid="false"
     inkscape:zoom="1.9666668"
     inkscape:cx="-166.19614"
     inkscape:cy="125.26552"
     inkscape:window-x="56"
     inkscape:window-y="34"
     inkscape:window-maximized="1"
     inkscape:current-layer="layer5" />
  <defs
     id="defs299">
    <radialGradient
       id="enOQoVqTZRr8-fill"
       cx="0"
       cy="0"
       r="1.076763"
       spreadMethod="pad"
       gradientUnits="objectBoundingBox"
       gradientTransform="matrix(1,0,0,1.11089,0.407157,0.32982)">
      <stop
         id="enOQoVqTZRr8-fill-0"
         offset="0%"
         stop-color="#f36ea0" />
      <stop
         id="enOQoVqTZRr8-fill-1"
         offset="99%"
         stop-color="#dc45a7" />
    </radialGradient>
    <radialGradient
       id="enOQoVqTZRr16-fill"
       cx="0"
       cy="0"
       r="1.076763"
       spreadMethod="pad"
       gradientUnits="objectBoundingBox"
       gradientTransform="matrix(1,0,0,1.11089,0.407157,0.32982)">
      <stop
         id="enOQoVqTZRr16-fill-0"
         offset="0%"
         stop-color="#f36ea0" />
      <stop
         id="enOQoVqTZRr16-fill-1"
         offset="99%"
         stop-color="#dc45a7" />
    </radialGradient>
    <radialGradient
       id="enOQoVqTZRr25-fill"
       cx="0"
       cy="0"
       r="1.076763"
       spreadMethod="pad"
       gradientUnits="objectBoundingBox"
       gradientTransform="matrix(1,0,0,1.11089,0.407157,0.32982)">
      <stop
         id="enOQoVqTZRr25-fill-0"
         offset="0%"
         stop-color="#f36ea0" />
      <stop
         id="enOQoVqTZRr25-fill-1"
         offset="99%"
         stop-color="#dc45a7" />
    </radialGradient>
    <radialGradient
       id="enOQoVqTZRr33-fill"
       cx="0"
       cy="0"
       r="1.076763"
       spreadMethod="pad"
       gradientUnits="objectBoundingBox"
       gradientTransform="matrix(1,0,0,1.11089,0.407157,0.32982)">
      <stop
         id="enOQoVqTZRr33-fill-0"
         offset="0%"
         stop-color="#f36ea0" />
      <stop
         id="enOQoVqTZRr33-fill-1"
         offset="99%"
         stop-color="#dc45a7" />
    </radialGradient>
    <radialGradient
       id="enOQoVqTZRr43-fill"
       cx="0"
       cy="0"
       r="1.076763"
       spreadMethod="pad"
       gradientUnits="objectBoundingBox"
       gradientTransform="matrix(1,0,0,1.11089,0.407157,0.32982)">
      <stop
         id="enOQoVqTZRr43-fill-0"
         offset="0%"
         stop-color="#f36ea0" />
      <stop
         id="enOQoVqTZRr43-fill-1"
         offset="99%"
         stop-color="#dc45a7" />
    </radialGradient>
  </defs>
  <style
     id="style325"><![CDATA[@font-face {font-family: 'enOQoVqTZRr1:::Ranchers';font-style: normal;font-weight: 400;src: url(https://fonts.gstatic.com/l/font?kit=zrfm0H3Lx-P2Xvs2AoDYFCuy&skey=d5ab3d28a945ee24&v=v13) format('truetype');}]]></style>
  <g
     inkscape:groupmode="layer"
     id="layer2"
     inkscape:label="circle"
     style="display:inline"
     transform="translate(-1.5737594,-9.5479225)">
    <g
       transform="matrix(0.98285773,0,0,0.98285773,1.5877443,9.5619165)"
       id="g347"
       style="fill:#820059;fill-opacity:1">
      <g
         id="g321"
         transform="matrix(1.706839,0,0,1.706367,-170.18499,-40.018377)"
         style="fill:#820059;fill-opacity:1">
        <g
           id="g319"
           style="fill:#820059;fill-opacity:1">
          <g
             id="g305"
             transform="matrix(1.188004,0,0,1.188004,-50.368342,-28.873573)"
             style="opacity:0.11000001;mix-blend-mode:multiply;fill:#820059;fill-opacity:1">
            <path
               style="fill:#820059;fill-opacity:1;stroke:#3f5787;stroke-width:0.95999998"
               inkscape:connector-curvature="0"
               id="path303"
               transform="translate(25.315312,-48.925497)"
               d="" />
          </g>
          <g
             id="g317"
             transform="matrix(1.188004,0,0,1.188004,-45.120973,-45.248714)"
             style="fill:#820059;fill-opacity:1">
            <path
               style="fill:#820059;fill-opacity:1;stroke:#3f5787;stroke-width:0.95999998"
               inkscape:connector-curvature="0"
               id="path307"
               transform="translate(25.315312,-48.925497)"
               d="" />
            <g
               id="g315"
               style="fill:#820059;fill-opacity:1" />
          </g>
        </g>
      </g>
      <circle
         style="fill:#820059;fill-opacity:1;stroke:#ffffff;stroke-width:8.28282166;stroke-miterlimit:4;stroke-dasharray:none;stroke-opacity:1"
         r="125.51028"
         cy="0"
         cx="0"
         id="ellipse301"
         transform="matrix(1.810977,0,0,1.810977,240,240)" />
    </g>
  </g>
  <g
     inkscape:groupmode="layer"
     id="layer5"
     inkscape:label="ringShadow"
     style="display:inline"
     transform="translate(0.57070923,1.5915375)">
    <ellipse
       style="display:inline;fill:none;fill-opacity:1;stroke:#750055;stroke-width:28;stroke-miterlimit:4;stroke-dasharray:none;stroke-opacity:1;shape-rendering:geometricPrecision;text-rendering:geometricPrecision"
       cy="233.25356"
       cx="235.58337"
       id="ellipse301-3"
       rx="220.96796"
       ry="197.58987" />
  </g>
  <g
     inkscape:groupmode="layer"
     id="layer9"
     inkscape:label="icecreamShadow"
     style="display:inline">
    <path
       style="display:inline;fill:#750055;fill-opacity:1;stroke:none;stroke-width:11.82310295;stroke-miterlimit:4;stroke-dasharray:none;stroke-opacity:1;paint-order:markers stroke fill;shape-rendering:geometricPrecision;text-rendering:geometricPrecision"
       d="m 237.01693,75.270045 c -71.82266,0 -108.8706,33.031625 -120.29694,114.348345 -37.444066,11.037 -54.972146,34.98857 -54.972146,69.93846 0,23.29993 48.237226,21.19843 55.609286,25.54067 10.81515,49.46412 21.22029,89.02687 48.65354,89.56619 32.64036,0.64169 44.39072,-32.28594 48.67854,-73.54162 0,0 27.62286,6.02891 72.06276,3.75299 49.5806,-2.53919 115.32242,-19.25608 112.72268,-55.42793 -1.925,-26.78371 -19.85235,-42.07408 -49.82764,-52.20164 C 346.38233,115.92879 308.83959,75.270045 237.01693,75.270045 Z m 18.57642,38.818335 c 14.89438,-0.13261 28.39445,1.92761 36.83586,10.90271 7.41828,7.88732 4.28439,29.83964 -4.45401,31.42054 -9.09318,1.64511 -14.8425,-2.57679 -25.66873,-2.89902 -10.82621,-0.32222 -35.14275,5.0738 -40.77945,18.67078 -5.63669,13.59701 -9.71901,35.62402 6.96055,45.07048 13.36744,7.57065 22.30348,5.49944 33.38062,3.8495 6.91194,-1.02954 16.64564,-4.95595 11.52752,-14.59377 -8.72318,-4.96454 -16.19391,-0.68525 -18.61851,-6.26853 -4.32304,-9.95492 -6.37815,-26.11479 13.37402,-30.80567 44.25471,-10.50989 50.34292,73.56602 33.95336,90.42676 -11.31517,11.64048 -34.95047,12.76636 -43.92175,12.39178 -12.59938,-0.52605 -34.1682,-2.23846 -55.80787,-11.52777 -20.04052,-8.60283 -41.25,-42.78647 -35.30311,-76.21384 5.94686,-33.4274 15.47423,-52.63284 45.38003,-64.09048 13.82959,-5.29845 31.55696,-6.23031 43.14147,-6.33347 z"
       id="path313-7"
       inkscape:connector-curvature="0"
       sodipodi:nodetypes="scscscsscssccscsscssssssss" />
    <path
       style="display:inline;fill:#750055;fill-opacity:1;stroke:none;stroke-width:0.91079134;stroke-linecap:butt;stroke-linejoin:miter;stroke-miterlimit:4;stroke-dasharray:none;stroke-opacity:1;shape-rendering:geometricPrecision;text-rendering:geometricPrecision"
       d="m 189.72686,444.23147 -11.98288,-52.4782 c 0,0 31.52167,0.70753 47.28643,-40.37745 8.24057,-21.47598 8.3699,-31.11344 8.3699,-31.11344 0,0 9.46358,1.11528 37.13341,1.7498 30.41998,0.69759 62.35787,-6.63969 62.35787,-6.63969 l -35.16566,135.49875 -60.59331,4.22004 z"
       id="path985-5"
       inkscape:connector-curvature="0"
       sodipodi:nodetypes="ccscscccc" />
  </g>
  <g
     inkscape:groupmode="layer"
     id="layer4"
     inkscape:label="icecream"
     style="display:inline"
     transform="translate(0.57070923,1.5915375)">
    <path
       style="display:inline;fill:#ff71d3;fill-opacity:1;stroke:none;stroke-width:0.91079134;stroke-linecap:butt;stroke-linejoin:miter;stroke-miterlimit:4;stroke-dasharray:none;stroke-opacity:1;shape-rendering:geometricPrecision;text-rendering:geometricPrecision"
       d="m 190.9134,451.71753 -11.98288,-52.4782 c 0,0 31.52167,0.70753 47.28643,-40.37745 8.24057,-21.47598 8.3699,-31.11344 8.3699,-31.11344 0,0 9.46358,1.11528 37.13341,1.7498 30.41998,0.69759 62.35787,-6.63969 62.35787,-6.63969 l -35.16566,135.49875 -60.59331,4.22004 z"
       id="path985"
       inkscape:connector-curvature="0"
       sodipodi:nodetypes="ccscscccc" />
    <path
       style="display:inline;fill:#ff71d3;fill-opacity:1;stroke:none;stroke-width:11.82310295;stroke-miterlimit:4;stroke-dasharray:none;stroke-opacity:1;paint-order:markers stroke fill;shape-rendering:geometricPrecision;text-rendering:geometricPrecision"
       d="m 242.15267,81.986402 c -71.82266,0 -108.8706,33.031618 -120.29694,114.348338 -37.444075,11.037 -54.972148,34.98857 -54.972148,69.93846 0,23.29993 48.237228,21.19843 55.609288,25.54067 10.81515,49.46412 21.22029,89.02687 48.65354,89.56619 32.64036,0.64169 44.39072,-32.28594 48.67854,-73.54162 0,0 27.62286,6.02891 72.06276,3.75299 49.5806,-2.53919 115.32242,-19.25608 112.72268,-55.42793 -1.925,-26.78371 -19.85235,-42.07408 -49.82764,-52.20164 C 351.51807,122.64514 313.97533,81.986402 242.15267,81.986402 Z m 18.57642,38.818328 c 14.89438,-0.13261 28.39445,1.92761 36.83586,10.90271 7.41828,7.88732 4.28439,29.83964 -4.45401,31.42054 -9.09318,1.64511 -14.8425,-2.57679 -25.66873,-2.89902 -10.82621,-0.32222 -35.14275,5.0738 -40.77945,18.67078 -5.63669,13.59701 -9.71901,35.62402 6.96055,45.07048 13.36744,7.57065 22.30348,5.49944 33.38062,3.8495 6.91194,-1.02954 16.64564,-4.95595 11.52752,-14.59377 -8.72318,-4.96454 -16.19391,-0.68525 -18.61851,-6.26853 -4.32304,-9.95492 -6.37815,-26.11479 13.37402,-30.80567 44.25471,-10.50989 50.34292,73.56602 33.95336,90.42676 -11.31517,11.64048 -34.95047,12.76636 -43.92175,12.39178 -12.59938,-0.52605 -34.1682,-2.23846 -55.80787,-11.52777 -20.04052,-8.60283 -41.25,-42.78647 -35.30311,-76.21384 5.94686,-33.4274 15.47423,-52.63284 45.38003,-64.09048 13.82959,-5.29845 31.55696,-6.23031 43.14147,-6.33347 z"
       id="path313"
       inkscape:connector-curvature="0"
       sodipodi:nodetypes="scscscsscssccscsscssssssss" />
  </g>
  <g
     style="display:inline"
     inkscape:label="ring"
     id="g1823"
     inkscape:groupmode="layer"
     transform="translate(0.57070923,1.5915375)">
    <circle
       id="circle1819"
       cx="235.32913"
       cy="234.3083"
       r="223.39984"
       style="display:inline;fill:none;fill-opacity:1;stroke:#ff71d3;stroke-width:25;stroke-miterlimit:4;stroke-dasharray:none;stroke-opacity:1;shape-rendering:geometricPrecision;text-rendering:geometricPrecision" />
  </g>
</svg>
