<?xml version="1.0" encoding="UTF-8" standalone="no"?>
<svg
   xmlns:dc="http://purl.org/dc/elements/1.1/"
   xmlns:cc="http://creativecommons.org/ns#"
   xmlns:rdf="http://www.w3.org/1999/02/22-rdf-syntax-ns#"
   xmlns:svg="http://www.w3.org/2000/svg"
   xmlns="http://www.w3.org/2000/svg"
   xmlns:sodipodi="http://sodipodi.sourceforge.net/DTD/sodipodi-0.dtd"
   xmlns:inkscape="http://www.inkscape.org/namespaces/inkscape"
   id="enOQoVqTZRr1"
   viewBox="0 0 469.59244 469.59244"
   version="1.1"
   sodipodi:docname="GLTO-v3-3.svg"
   inkscape:version="0.92.5 (2060ec1f9f, 2020-04-08)"
   width="469.59244"
   height="469.59244"
   style="shape-rendering:geometricPrecision;text-rendering:geometricPrecision">
  <metadata
     id="metadata330">
    <rdf:RDF>
      <cc:Work
         rdf:about="">
        <dc:format>image/svg+xml</dc:format>
        <dc:type
           rdf:resource="http://purl.org/dc/dcmitype/StillImage" />
        <dc:title></dc:title>
      </cc:Work>
    </rdf:RDF>
  </metadata>
  <sodipodi:namedview
     pagecolor="#ffffff"
     bordercolor="#666666"
     borderopacity="1"
     objecttolerance="10"
     gridtolerance="10"
     guidetolerance="10"
     inkscape:pageopacity="0"
     inkscape:pageshadow="2"
     inkscape:window-width="3784"
     inkscape:window-height="2089"
     id="namedview328"
     showgrid="false"
     inkscape:zoom="1.3906434"
     inkscape:cx="-337.62165"
     inkscape:cy="201.38577"
     inkscape:window-x="56"
     inkscape:window-y="34"
     inkscape:window-maximized="1"
     inkscape:current-layer="layer1" />
  <defs
     id="defs299">
    <radialGradient
       id="enOQoVqTZRr8-fill"
       cx="0"
       cy="0"
       r="1.076763"
       spreadMethod="pad"
       gradientUnits="objectBoundingBox"
       gradientTransform="matrix(1,0,0,1.11089,0.407157,0.32982)">
      <stop
         id="enOQoVqTZRr8-fill-0"
         offset="0%"
         stop-color="#f36ea0" />
      <stop
         id="enOQoVqTZRr8-fill-1"
         offset="99%"
         stop-color="#dc45a7" />
    </radialGradient>
    <radialGradient
       id="enOQoVqTZRr16-fill"
       cx="0"
       cy="0"
       r="1.076763"
       spreadMethod="pad"
       gradientUnits="objectBoundingBox"
       gradientTransform="matrix(1,0,0,1.11089,0.407157,0.32982)">
      <stop
         id="enOQoVqTZRr16-fill-0"
         offset="0%"
         stop-color="#f36ea0" />
      <stop
         id="enOQoVqTZRr16-fill-1"
         offset="99%"
         stop-color="#dc45a7" />
    </radialGradient>
    <radialGradient
       id="enOQoVqTZRr25-fill"
       cx="0"
       cy="0"
       r="1.076763"
       spreadMethod="pad"
       gradientUnits="objectBoundingBox"
       gradientTransform="matrix(1,0,0,1.11089,0.407157,0.32982)">
      <stop
         id="enOQoVqTZRr25-fill-0"
         offset="0%"
         stop-color="#f36ea0" />
      <stop
         id="enOQoVqTZRr25-fill-1"
         offset="99%"
         stop-color="#dc45a7" />
    </radialGradient>
    <radialGradient
       id="enOQoVqTZRr33-fill"
       cx="0"
       cy="0"
       r="1.076763"
       spreadMethod="pad"
       gradientUnits="objectBoundingBox"
       gradientTransform="matrix(1,0,0,1.11089,0.407157,0.32982)">
      <stop
         id="enOQoVqTZRr33-fill-0"
         offset="0%"
         stop-color="#f36ea0" />
      <stop
         id="enOQoVqTZRr33-fill-1"
         offset="99%"
         stop-color="#dc45a7" />
    </radialGradient>
    <radialGradient
       id="enOQoVqTZRr43-fill"
       cx="0"
       cy="0"
       r="1.076763"
       spreadMethod="pad"
       gradientUnits="objectBoundingBox"
       gradientTransform="matrix(1,0,0,1.11089,0.407157,0.32982)">
      <stop
         id="enOQoVqTZRr43-fill-0"
         offset="0%"
         stop-color="#f36ea0" />
      <stop
         id="enOQoVqTZRr43-fill-1"
         offset="99%"
         stop-color="#dc45a7" />
    </radialGradient>
  </defs>
  <style
     id="style325"><![CDATA[@font-face {font-family: 'enOQoVqTZRr1:::Ranchers';font-style: normal;font-weight: 400;src: url(https://fonts.gstatic.com/l/font?kit=zrfm0H3Lx-P2Xvs2AoDYFCuy&skey=d5ab3d28a945ee24&v=v13) format('truetype');}]]></style>
  <g
     inkscape:groupmode="layer"
     id="layer1"
     inkscape:label="rect"
     style="display:none"
     transform="translate(-2.1444686,-11.13946)">
    <rect
       id="rect4104"
       width="598.28424"
       height="568.80151"
       x="-62.201427"
       y="-38.465073"
       style="fill:#d14646;fill-opacity:0;stroke-width:0.94686413" />
    <path
       style="fill:#d14646;fill-opacity:0;stroke:none;stroke-width:5.75273323;stroke-linecap:round;stroke-miterlimit:4;stroke-dasharray:none;stroke-opacity:1"
       d="M 215.4341,469.2195 C 179.55235,465.79947 144.48019,454.55773 115.30121,437.12368 79.94177,415.99691 49.94662,385.38938 30.385559,350.4744 17.984393,328.33928 9.3158712,305.28742 4.6036925,281.91368 1.6463218,267.24429 0.55469874,256.82566 0.19609152,239.84682 -0.24841541,218.80092 1.200099,203.18221 5.3145642,184.65654 20.863986,114.64415 65.928759,56.598607 129.32288,24.927998 152.25525,13.471383 177.82999,5.4678139 203.02977,1.8615644 c 13.98874,-2.00187779 38.15538,-2.31289419 56.80824,-0.7311024 8.29278,0.7032405 19.10833,2.6032106 29.8423,5.2423995 58.6441,14.4189765 108.2134,49.1452495 141.28461,98.9783685 9.747,14.68721 21.93348,39.71974 26.96795,55.39551 4.66381,14.52172 9.17158,34.95181 10.23375,46.38141 1.51775,16.33162 1.52199,39.79307 0.0101,55.37006 -1.0882,11.21121 -4.48778,27.27291 -8.61055,40.68134 -9.83778,31.99541 -26.09148,61.31623 -47.60602,85.87878 -25.48468,29.09521 -57.30355,51.45 -92.2577,64.81698 -21.31067,8.14954 -43.74242,13.27095 -65.79688,15.02218 -6.37594,0.50628 -34.10322,0.73833 -38.4714,0.32201 z m -42.59495,-79.98772 c 23.24672,-4.74148 38.2666,-25.52301 46.35569,-64.13773 1.14241,-5.45352 2.9245,-16.19573 3.26437,-19.67725 0.13766,-1.41018 0.35263,-2.71983 0.47771,-2.91033 0.14341,-0.21842 2.599,-0.10428 6.64743,0.30899 23.25767,2.37415 51.45525,2.69746 72.32052,0.82921 17.08168,-1.52948 46.61346,-5.43714 59.86438,-7.92129 29.48624,-5.52778 48.11535,-13.99679 57.25148,-26.02716 2.10561,-2.77263 4.97709,-8.59437 5.8469,-11.85423 1.8782,-7.0388 1.00615,-17.20514 -2.36484,-27.57003 -5.95433,-18.30784 -19.26561,-32.74634 -39.52034,-42.86698 -3.06513,-1.53154 -6.94822,-3.32909 -8.6291,-3.99455 -1.68088,-0.66545 -3.09533,-1.23582 -3.14322,-1.26748 -0.0479,-0.0317 -0.3333,-3.11946 -0.63424,-6.86177 C 365.59845,113.38138 342.32651,73.829859 300.28691,55.822434 276.0541,45.442444 241.9108,42.341663 210.76,47.691899 187.21656,51.735549 166.74094,61.007588 150.39279,75.028174 124.15943,97.52657 107.48223,131.80971 99.676056,179.28602 l -0.417547,2.53948 -3.124881,1.00669 c -4.990838,1.60781 -13.536688,5.13929 -18.405575,7.60588 -19.6658,9.96277 -31.478833,23.52762 -36.452531,41.85829 -2.246467,8.27939 -3.436585,20.45068 -2.74003,28.02211 1.599734,17.38873 11.56217,28.4619 29.755192,33.07265 6.333065,1.60502 10.544558,2.00499 21.032722,1.99751 l 9.977396,-0.007 2.23e-4,1.44574 c 1.19e-4,0.79516 0.328075,4.35807 0.728785,7.91758 4.38426,38.94533 15.60567,64.12118 34.12956,76.57157 6.90175,4.63886 14.74844,7.42531 23.87394,8.47791 3.64954,0.42096 11.43407,0.1252 14.80584,-0.56254 z"
       id="path975"
       inkscape:connector-curvature="0"
       transform="translate(2.1444686,11.13946)" />
    <path
       style="fill:#d14646;fill-opacity:0;stroke:none;stroke-width:5.75273323;stroke-linecap:round;stroke-miterlimit:4;stroke-dasharray:none;stroke-opacity:1"
       d="M -63.932998,234.81318 V -49.228015 H 234.49003 532.91305 V 234.81318 518.85437 H 234.49003 -63.932998 Z M 246.55138,469.58452 c 12.78762,-0.63079 20.76982,-1.54271 31.62346,-3.61283 34.19641,-6.52223 65.49613,-19.77721 92.91337,-39.3474 10.45588,-7.46331 17.88172,-13.74928 28.02016,-23.71906 12.88353,-12.66917 21.27181,-22.57926 29.98051,-35.41965 19.03518,-28.06596 32.03801,-60.24449 37.82012,-93.59467 1.79813,-10.37131 2.30879,-16.91497 2.60067,-33.325 0.47995,-26.98648 -1.09791,-41.4741 -7.09312,-65.12767 -4.50454,-17.77222 -8.68735,-28.59173 -18.67614,-48.30903 -5.43332,-10.72507 -7.49776,-14.35305 -12.41897,-21.82473 C 404.92388,65.22619 366.74155,34.186578 321.76683,16.244044 301.80657,8.2809532 277.46075,2.2761749 258.93914,0.7478931 245.40622,-0.36875912 218.07885,-0.28297149 207.91755,0.90805998 181.72811,3.9777902 153.38637,12.534326 128.99874,24.734115 61.03392,58.733155 14.503133,122.73428 2.2059006,199.13228 c -3.20358921,19.90268 -3.18685954,51.24122 0.038241,71.63548 3.8741277,24.49843 10.6266644,45.60224 21.9156944,68.49348 9.111413,18.47558 18.930821,33.35819 32.144033,48.71846 4.277595,4.97266 15.764232,16.63467 21.489668,21.81774 36.763043,33.28057 82.015623,53.38684 133.326013,59.23837 2.66963,0.30447 5.66285,0.60692 6.6516,0.67214 4.39735,0.29004 21.92162,0.2149 28.78023,-0.12343 z"
       id="path977"
       inkscape:connector-curvature="0"
       transform="translate(2.1444686,11.13946)" />
    <rect
       style="fill:#b01859;fill-opacity:0.96808543;stroke:none;stroke-width:16;stroke-linecap:round;stroke-miterlimit:4;stroke-dasharray:none;stroke-opacity:1"
       id="rect979"
       width="505.52142"
       height="501.56641"
       x="-11.158727"
       y="-2.4976773" />
  </g>
  <g
     inkscape:groupmode="layer"
     id="layer3"
     inkscape:label="bg"
     style="display:none"
     transform="translate(-2.1444686,-11.13946)">
    <circle
       style="fill:none;fill-opacity:1;stroke:none;stroke-width:13.64299965;stroke-miterlimit:4;stroke-dasharray:none;stroke-opacity:1"
       r="227.29622"
       cy="245.93568"
       cx="236.94069"
       id="ellipse301-7" />
  </g>
  <g
     inkscape:groupmode="layer"
     id="layer4"
     inkscape:label="path"
     style="display:inline">
    <path
       style="fill:#ffffff;fill-opacity:1;stroke:none;stroke-width:1.00157475;stroke-linecap:butt;stroke-linejoin:miter;stroke-miterlimit:4;stroke-dasharray:none;stroke-opacity:1"
       d="m 178.35722,452.91855 -12.49421,-57.52732 c 0,0 32.71771,3.27057 51.23527,-44.22414 10.15863,-26.05534 11.0079,-42.08999 11.0079,-42.08999 0,0 18.10874,3.16188 51.7193,3.93506 33.21305,0.76403 49.54099,-2.5187 49.54099,-2.5187 l -32.89845,150.87442 -66.15643,4.6741 z"
       id="path985"
       inkscape:connector-curvature="0"
       sodipodi:nodetypes="ccscscccc" />
  </g>
  <g
     inkscape:groupmode="layer"
     id="layer2"
     inkscape:label="logo"
     style="display:inline"
     transform="translate(-2.1444686,-11.13946)">
    <g
       transform="translate(-3.0593071,5.9356842)"
       id="g347">
      <g
         id="g321"
         transform="matrix(1.706839,0,0,1.706367,-170.18499,-40.018377)">
        <g
           id="g319">
          <g
             id="g305"
             transform="matrix(1.188004,0,0,1.188004,-50.368342,-28.873573)"
             style="opacity:0.11000001;mix-blend-mode:multiply">
            <path
               style="fill:none;stroke:#3f5787;stroke-width:0.95999998"
               inkscape:connector-curvature="0"
               id="path303"
               transform="translate(25.315312,-48.925497)"
               d="" />
          </g>
          <g
             id="g317"
             transform="matrix(1.188004,0,0,1.188004,-45.120973,-45.248714)">
            <path
               style="fill:none;stroke:#3f5787;stroke-width:0.95999998"
               inkscape:connector-curvature="0"
               id="path307"
               transform="translate(25.315312,-48.925497)"
               d="" />
            <g
               id="g315">
              <path
                 style="fill:#ffffff;fill-opacity:1;stroke:none;stroke-width:13.00157452;stroke-miterlimit:4;stroke-dasharray:none;stroke-opacity:1;paint-order:markers stroke fill"
                 d="m 241.63672,51.787109 c -78.41674,0 -123.8625,45.033464 -136.33789,135.099611 -40.881848,12.22455 -60.322268,30.70367 -60.322268,69.41406 0,25.80692 21.306217,36.29914 60.322268,31.47461 3.56441,63.7465 23.16853,95.61914 58.8125,95.61914 35.64397,0 48.25603,-43.07292 52.9375,-88.76758 0,0 40.7253,9.66733 89.15954,5.83807 46.94171,-3.71126 117.96084,-15.92847 112.8014,-55.75994 -3.53992,-27.32849 -21.675,-46.60111 -54.40235,-57.81836 C 361.04301,96.820573 320.05346,51.787109 241.63672,51.787109 Z m 16.93164,42.451172 c 16.26184,-0.146887 29.84217,4.588505 39.05859,14.529299 8.09936,8.73596 4.81997,24.49508 -4.7207,26.24609 -9.92804,1.82213 -16.2052,-2.85403 -28.02539,-3.21094 -11.82017,-0.3569 -38.36923,5.61972 -44.52344,20.67969 -6.1542,15.06001 -10.61132,39.45705 7.59961,49.91992 14.59471,8.38522 24.35117,6.09115 36.44531,4.26368 7.54654,-1.14031 21.22473,-8.54004 15.63672,-19.21485 -1.38382,-2.64355 -16.95631,1.39301 -19.60351,-4.79101 -4.71994,-11.02604 -3.62032,-25.9919 17.94531,-31.1875 48.31776,-11.64073 39.7107,75.37978 21.81641,94.05468 -12.35403,12.89294 -25.34338,14.061 -35.14454,13.83789 -9.80114,-0.22311 -30.29936,0.45873 -53.92578,-9.83007 -21.88045,-9.52847 -57.43623,-41.28846 -50.94336,-78.3125 6.49286,-37.02408 23.71571,-55.24511 56.36719,-67.93555 15.09929,-5.868556 29.36948,-8.934583 42.01758,-9.048829 z"
                 transform="matrix(0.49316193,0,0,0.49329834,124.47555,60.396028)"
                 id="path313"
                 inkscape:connector-curvature="0"
                 sodipodi:nodetypes="scscscsscssccscsscssssssss" />
            </g>
          </g>
        </g>
      </g>
      <circle
         style="fill:none;fill-opacity:1;stroke:#ffffff;stroke-width:8.28282166;stroke-miterlimit:4;stroke-dasharray:none;stroke-opacity:1"
         r="125.51028"
         cy="0"
         cx="0"
         id="ellipse301"
         transform="matrix(1.810977,0,0,1.810977,240,240)" />
    </g>
  </g>
</svg>
