<?xml version="1.0" encoding="UTF-8"?>
<svg version="1.1" xmlns="http://www.w3.org/2000/svg" width="415" height="415">
<path d="M0 0 C0.90029938 0.00054382 1.80059875 0.00108765 2.72817993 0.00164795 C17.51180446 0.04258122 31.67991486 1.02601425 46.125 4.375 C47.49930176 4.68050781 47.49930176 4.68050781 48.90136719 4.9921875 C100.86338506 16.82747312 147.69061113 50.32594823 176.265625 95.2421875 C188.94389542 115.66795994 197.73516668 136.82803437 203.4375 160.1875 C203.68000488 161.17621094 203.92250977 162.16492188 204.17236328 163.18359375 C207.60286978 177.88507178 208.53427845 192.22219046 208.5 207.25 C208.49918427 208.59995056 208.49918427 208.59995056 208.49835205 209.97717285 C208.3697168 256.41552764 192.89695216 302.41013167 163.125 338.375 C162.6491748 338.95233887 162.17334961 339.52967773 161.68310547 340.12451172 C152.109677 351.67434971 142.01004177 362.15677046 130.125 371.375 C129.59342285 371.79362305 129.0618457 372.21224609 128.51416016 372.64355469 C111.67183937 385.8338541 93.03645477 395.66425273 73.125 403.375 C72.45839355 403.63361816 71.79178711 403.89223633 71.10498047 404.15869141 C63.27449679 407.12674708 55.26791326 409.16585223 47.125 411.0625 C46.2594751 411.26520508 45.3939502 411.46791016 44.50219727 411.67675781 C30.07273637 414.88956223 15.97268845 415.78358247 1.25 415.75 C0.35003296 415.74945618 -0.54993408 415.74891235 -1.47717285 415.74835205 C-47.91552764 415.6197168 -93.91013167 400.14695216 -129.875 370.375 C-130.45233887 369.8991748 -131.02967773 369.42334961 -131.62451172 368.93310547 C-143.17434971 359.359677 -153.65677046 349.26004177 -162.875 337.375 C-163.29362305 336.84342285 -163.71224609 336.3118457 -164.14355469 335.76416016 C-177.3338541 318.92183937 -187.16425273 300.28645477 -194.875 280.375 C-195.13361816 279.70839355 -195.39223633 279.04178711 -195.65869141 278.35498047 C-198.62674708 270.52449679 -200.66585223 262.51791326 -202.5625 254.375 C-202.76520508 253.5094751 -202.96791016 252.6439502 -203.17675781 251.75219727 C-206.38956222 237.32273641 -207.28357898 223.22268709 -207.25 208.5 C-207.24945618 207.59970062 -207.24891235 206.69940125 -207.24835205 205.77182007 C-207.20741878 190.98819554 -206.22398575 176.82008514 -202.875 162.375 C-202.56949219 161.00069824 -202.56949219 161.00069824 -202.2578125 159.59863281 C-190.42252688 107.63661494 -156.92405177 60.80938887 -112.0078125 32.234375 C-91.58204006 19.55610458 -70.42196563 10.76483332 -47.0625 5.0625 C-45.57943359 4.69874268 -45.57943359 4.69874268 -44.06640625 4.32763672 C-29.3649283 0.89713024 -15.02780805 -0.03427489 0 0 Z " fill="#407850" transform="translate(206.875,-0.375)"/>
<path d="M0 0 C1.58554687 0.78503906 1.58554687 0.78503906 3.203125 1.5859375 C19.71846514 10.44888182 31.39472783 24.53370984 38 42 C38.3897043 43.98978433 38.74110005 45.98900971 39 48 C40.12921875 48.09474609 40.12921875 48.09474609 41.28125 48.19140625 C61.84501589 50.56222877 79.77479002 62.37434113 93 78 C95.62780233 81.52945194 97.8826395 85.14560916 100 89 C100.47050781 89.84433594 100.94101562 90.68867188 101.42578125 91.55859375 C104.39821633 97.17903885 106.465708 102.83622578 108 109 C108.25595947 109.98347412 108.25595947 109.98347412 108.51708984 110.98681641 C109.86043226 116.47362388 110.31871362 121.61082469 110.25 127.25 C110.24178223 128.07918945 110.23356445 128.90837891 110.22509766 129.76269531 C109.80372593 153.13296822 100.61911837 172.7275948 84 189 C73.80444261 198.54900985 57.41033488 209 43 209 C42.92265625 209.72445312 42.8453125 210.44890625 42.765625 211.1953125 C42.01563788 215.45660298 41.30228078 218.85329033 37.97265625 221.78515625 C34.73635406 223.49122451 31.44191611 224.78676625 28 226 C27.09797852 226.32629395 26.19595703 226.65258789 25.26660156 226.98876953 C14.61892519 230.80237254 4.20546182 234.27587094 -7 236 C-7.33 237.65 -7.66 239.3 -8 241 C11.79368764 236.6269226 11.79368764 236.6269226 31.21875 230.8828125 C34 230 34 230 36 230 C32.96930902 256.01959085 32.96930902 256.01959085 24.88964844 262.76074219 C19.57067725 265.66938305 13.90693248 266.88240436 8 268 C6.54968464 268.36828375 5.10156959 268.74538655 3.65625 269.1328125 C-0 270 -0 270 -4 270 C-4 271.32 -4 272.64 -4 274 C-1.29059138 273.54742618 1.41739526 273.08814292 4.125 272.625 C5.26582031 272.43550781 5.26582031 272.43550781 6.4296875 272.2421875 C9.8291403 271.65607495 12.96627989 271.01145671 16.2421875 269.8984375 C19.03385305 268.98897139 21.09369517 268.92988776 24 269 C22.83384182 273.0825067 21.64312715 277.15678101 20.42944336 281.2253418 C20.02032226 282.60942421 19.61789646 283.99550446 19.22241211 285.38354492 C18.65159821 287.38246786 18.05681856 289.37288767 17.45703125 291.36328125 C16.9307312 293.16212769 16.9307312 293.16212769 16.39379883 294.99731445 C14.76891671 298.49782682 13.47254822 299.43967197 10 301 C7.31350447 301.61419008 4.75958041 301.76613725 2 302 C2 303.65 2 305.3 2 307 C5.3 306.67 8.6 306.34 12 306 C9.64498089 314.51349829 7.19480516 322.98518017 4.0625 331.25 C3.62035156 332.43078125 3.17820313 333.6115625 2.72265625 334.828125 C0.22342613 339.42988204 -2.78182478 341.85772709 -7.48046875 344.27734375 C-10.48329948 345.13862078 -13.18868925 345.44652619 -16.3125 345.5625 C-17.91544922 345.65724609 -17.91544922 345.65724609 -19.55078125 345.75390625 C-26.62071302 344.20860973 -30.71313689 338.75297004 -34.51953125 332.8984375 C-35.63101325 331.06560499 -36.72858111 329.22426663 -37.8125 327.375 C-38.37130859 326.446875 -38.93011719 325.51875 -39.50585938 324.5625 C-41.0165437 322.04889415 -42.50958905 319.52565562 -44 317 C-44.83084106 315.67476318 -44.83084106 315.67476318 -45.6784668 314.32275391 C-47 312 -47 312 -47 310 C-41.72 310 -36.44 310 -31 310 C-31 308.35 -31 306.7 -31 305 C-31.9178125 304.95101563 -32.835625 304.90203125 -33.78125 304.8515625 C-35.0084375 304.77679688 -36.235625 304.70203125 -37.5 304.625 C-38.7065625 304.55539062 -39.913125 304.48578125 -41.15625 304.4140625 C-42.4246875 304.27742188 -43.693125 304.14078125 -45 304 C-45.98516602 303.9685791 -45.98516602 303.9685791 -46.99023438 303.93652344 C-50.78517591 303.51056061 -52.49421364 302.61952475 -54.94335938 299.61962891 C-56.93839713 296.47585539 -58.7388891 293.28035249 -60.5 290 C-61.44746094 288.32164062 -61.44746094 288.32164062 -62.4140625 286.609375 C-67 278.39042208 -67 278.39042208 -67 276 C-56.6374817 275.81384698 -46.33938394 276.39434571 -36 277 C-36 275.68 -36 274.36 -36 273 C-36.98355469 272.98582031 -37.96710938 272.97164063 -38.98046875 272.95703125 C-42.80424257 272.8574392 -46.59463457 272.56407471 -50.40283203 272.21191406 C-52.14046518 272.07013313 -53.88205911 271.97078948 -55.62451172 271.91308594 C-62.26641882 271.6416883 -68.48858505 270.96412426 -74 267 C-79.23078217 260.51784476 -89 246.55330166 -89 238 C-78.72025924 238.75940835 -68.45437217 239.64812538 -58.1875 240.5625 C-56.60873008 240.70254301 -55.02995407 240.84251738 -53.45117188 240.98242188 C-49.63404413 241.3208258 -45.81699925 241.66014991 -42 242 C-42 240.35 -42 238.7 -42 237 C-42.90335083 237.02827881 -42.90335083 237.02827881 -43.82495117 237.05712891 C-53.16665859 237.22116082 -61.92956726 235.52901555 -71.04248047 233.61962891 C-73.00208437 233.20907296 -74.96472065 232.81271462 -76.93017578 232.43115234 C-92.87598895 229.25062219 -92.87598895 229.25062219 -96.42529297 225.48974609 C-98.21467811 222.73471138 -99.54053335 219.76713802 -100.94140625 216.80078125 C-102.8199651 213.66997314 -102.8199651 213.66997314 -106.58984375 212.85546875 C-110.06463358 212.40053576 -113.55653294 212.27859539 -117.05615234 212.14111328 C-132.75113472 211.00173878 -147.4606245 199.80402747 -158 189 C-158.73863281 188.27039063 -159.47726563 187.54078125 -160.23828125 186.7890625 C-171.62473887 174.89408347 -179.61232886 157.59232472 -180 141 C-180.05027344 139.75992188 -180.10054687 138.51984375 -180.15234375 137.2421875 C-180.7725745 115.5466664 -175.34654402 96.41359462 -160.28515625 80.19140625 C-153.09193845 73.29329482 -141.49846773 63 -131 63 C-130.95875 61.845 -130.9175 60.69 -130.875 59.5 C-128.4869608 38.94350043 -114.62353782 20.83715801 -99.3125 7.8125 C-69.60504369 -14.71448109 -32.98768216 -16.74787163 0 0 Z " fill="#EFF5E2" transform="translate(241,42)"/>
<path d="M0 0 C2.540524 2.56446424 3.42052105 4.80347364 3.94921875 8.328125 C4.13774414 9.52695313 4.13774414 9.52695313 4.33007812 10.75 C4.50700195 11.9875 4.50700195 11.9875 4.6875 13.25 C4.81705078 14.09046875 4.94660156 14.9309375 5.08007812 15.796875 C5.39704442 17.86302567 5.69991516 19.93133006 6 22 C6.80219971 21.98428955 7.60439941 21.9685791 8.4309082 21.95239258 C12.05803404 21.89011417 15.68504749 21.85103136 19.3125 21.8125 C20.57513672 21.78736328 21.83777344 21.76222656 23.13867188 21.73632812 C24.34716797 21.72666016 25.55566406 21.71699219 26.80078125 21.70703125 C27.91622314 21.6913208 29.03166504 21.67561035 30.1809082 21.65942383 C33 22 33 22 34.87060547 23.26538086 C38.38532769 28.66358696 35.59695452 38.24126567 34.6875 44.25 C34.56955078 45.12140625 34.45160156 45.9928125 34.33007812 46.890625 C34.20439453 47.73625 34.07871094 48.581875 33.94921875 49.453125 C33.78425903 50.58476074 33.78425903 50.58476074 33.6159668 51.73925781 C32.75097223 54.91399014 32.29645011 56.54134904 30 59 C26.29512502 59.9482427 22.570799 60.0736478 18.76171875 60.2578125 C17.64819534 60.33240692 16.53467194 60.40700134 15.3874054 60.4838562 C11.82178139 60.720051 8.25530494 60.92466678 4.6875 61.125 C1.1308442 61.3361817 -2.42499176 61.55431333 -5.98027039 61.78756714 C-8.19313242 61.93163188 -10.40690426 62.0624851 -12.62141418 62.17849731 C-18.04466316 62.52032222 -22.35269062 62.88948514 -27 66 C-28.42744354 68.85488707 -27.90613448 71.03297004 -27.65234375 74.20703125 C-27.55163574 75.4698291 -27.45092773 76.73262695 -27.34716797 78.03369141 C-26.80242417 84.2572552 -26.20467096 90.47326102 -25.5625 96.6875 C-25.44068359 97.91533203 -25.31886719 99.14316406 -25.19335938 100.40820312 C-24.44552393 107.68119345 -23.44111268 114.83122313 -22 122 C-18.82946805 122.91658383 -15.87176138 123.18832039 -12.578125 123.31640625 C-11.55332031 123.35830078 -10.52851563 123.40019531 -9.47265625 123.44335938 C-8.40917969 123.48267578 -7.34570312 123.52199219 -6.25 123.5625 C-5.17105469 123.60568359 -4.09210938 123.64886719 -2.98046875 123.69335938 C-0.32043572 123.79928989 2.33968812 123.90136421 5 124 C4.84853516 123.21351074 4.69707031 122.42702148 4.54101562 121.61669922 C3.85498392 118.03719687 3.17741452 114.45614269 2.5 110.875 C2.14228516 109.01875 2.14228516 109.01875 1.77734375 107.125 C1.55175781 105.92617187 1.32617188 104.72734375 1.09375 103.4921875 C0.88427734 102.39245605 0.67480469 101.29272461 0.45898438 100.15966797 C-0.00404928 96.97212461 -0.36695497 94.20635346 0 91 C2.96912864 87.60493594 6.46081933 87.37578251 10.78515625 86.83203125 C11.76965004 86.70522224 11.76965004 86.70522224 12.77403259 86.57585144 C14.16267423 86.39963927 15.55208248 86.22937908 16.94213867 86.06469727 C19.03316932 85.81598861 21.12086725 85.54736708 23.20898438 85.27539062 C41.10525363 83.00566281 41.10525363 83.00566281 46 84 C48.53118636 86.05225763 49.83040762 87.35794524 50.6708374 90.53970337 C50.75077942 91.49549286 50.83072144 92.45128235 50.91308594 93.43603516 C51.06278839 95.06890976 51.06278839 95.06890976 51.21551514 96.73477173 C51.34860077 98.49414566 51.34860077 98.49414566 51.484375 100.2890625 C51.58969543 101.50266449 51.69501587 102.71626648 51.80352783 103.96664429 C52.13592388 107.85155037 52.44271679 111.73803572 52.75 115.625 C52.97109415 118.22018564 53.19373291 120.81524018 53.41796875 123.41015625 C53.6289877 125.91134199 53.83866598 128.41264128 54.046875 130.9140625 C54.14369568 132.07483307 54.24051636 133.23560364 54.340271 134.43154907 C54.59128599 137.61985702 54.80353463 140.80792081 55 144 C55.0772229 144.95541687 55.1544458 145.91083374 55.23400879 146.89520264 C55.56439575 153.29100921 55.56439575 153.29100921 52.94067383 156.58691406 C49.40666668 158.28511526 46.8670048 158.54268928 42.94921875 158.609375 C42.29041214 158.62591125 41.63160553 158.64244751 40.95283508 158.65948486 C38.86429349 158.70777556 36.77647878 158.72929082 34.6875 158.75 C33.26493776 158.77817596 31.8424091 158.80810568 30.41992188 158.83984375 C26.94677175 158.91352563 23.47375928 158.96321715 20 159 C20.05220703 160.75376953 20.05220703 160.75376953 20.10546875 162.54296875 C20.13361716 164.09113141 20.16091619 165.63930968 20.1875 167.1875 C20.21263672 167.95642578 20.23777344 168.72535156 20.26367188 169.51757812 C20.32340012 174.15647198 20.10041764 177.27805342 17 181 C13.60657189 182.1311427 11.00230914 182.12942311 7.42578125 182.1328125 C6.11802734 182.13410156 4.81027344 182.13539063 3.46289062 182.13671875 C2.78073486 182.13462402 2.0985791 182.1325293 1.39575195 182.13037109 C-0.66267424 182.12506401 -2.72087785 182.13029931 -4.77929688 182.13671875 C-8.52172655 182.1330479 -12.25863861 182.08682145 -16 182 C-16.85803223 181.98163086 -17.71606445 181.96326172 -18.60009766 181.94433594 C-22.05522022 181.71532897 -23.80473945 181.16302414 -26.484375 178.92578125 C-28.37929013 175.26781364 -28.44955833 172.19785495 -28.25 168.1875 C-28.23195312 167.49462891 -28.21390625 166.80175781 -28.1953125 166.08789062 C-28.14851064 164.39132336 -28.07677624 162.69547524 -28 161 C-28.53625 161.04640625 -29.0725 161.0928125 -29.625 161.140625 C-42.13075617 161.71654798 -55.00122877 157.9403091 -65.1875 150.75 C-73.77735853 142.35102722 -76.18351462 131.7566312 -77.1328125 120.109375 C-77.21498016 119.20229797 -77.29714783 118.29522095 -77.38180542 117.36065674 C-77.63926063 114.49120087 -77.88225947 111.62073385 -78.125 108.75 C-78.29464682 106.84236533 -78.46521319 104.93481221 -78.63671875 103.02734375 C-81.17283125 74.56763776 -81.17283125 74.56763776 -81.3125 61.625 C-81.34150391 60.70589844 -81.37050781 59.78679687 -81.40039062 58.83984375 C-81.48555464 49.65523267 -78.38411173 43.61813342 -72 37 C-64.32701369 31.59101829 -54.66914797 26 -45 26 C-45.02094727 25.44014404 -45.04189453 24.88028809 -45.06347656 24.3034668 C-45.14666202 21.76499414 -45.19866381 19.226808 -45.25 16.6875 C-45.28351563 15.80642578 -45.31703125 14.92535156 -45.3515625 14.01757812 C-45.36445313 13.17001953 -45.37734375 12.32246094 -45.390625 11.44921875 C-45.41157227 10.66893311 -45.43251953 9.88864746 -45.45410156 9.0847168 C-45 7 -45 7 -43.38598633 5.29492188 C-40.37807877 3.66247107 -37.82755956 3.27413101 -34.43359375 2.83203125 C-33.14259766 2.66123047 -31.85160156 2.49042969 -30.52148438 2.31445312 C-29.51347778 2.19082397 -29.51347778 2.19082397 -28.48510742 2.06469727 C-26.46641763 1.81606169 -24.45120624 1.54738976 -22.43554688 1.27539062 C-4.73472475 -0.99754588 -4.73472475 -0.99754588 0 0 Z " fill="#437C55" transform="translate(216,59)"/>
<path d="M0 0 C0.90029938 0.00054382 1.80059875 0.00108765 2.72817993 0.00164795 C17.51180446 0.04258122 31.67991486 1.02601425 46.125 4.375 C47.49930176 4.68050781 47.49930176 4.68050781 48.90136719 4.9921875 C100.86338506 16.82747312 147.69061113 50.32594823 176.265625 95.2421875 C188.94389542 115.66795994 197.73516668 136.82803437 203.4375 160.1875 C203.68000488 161.17621094 203.92250977 162.16492188 204.17236328 163.18359375 C207.60286978 177.88507178 208.53427845 192.22219046 208.5 207.25 C208.49918427 208.59995056 208.49918427 208.59995056 208.49835205 209.97717285 C208.3697168 256.41552764 192.89695216 302.41013167 163.125 338.375 C162.6491748 338.95233887 162.17334961 339.52967773 161.68310547 340.12451172 C152.109677 351.67434971 142.01004177 362.15677046 130.125 371.375 C129.59342285 371.79362305 129.0618457 372.21224609 128.51416016 372.64355469 C111.67183937 385.8338541 93.03645477 395.66425273 73.125 403.375 C72.45839355 403.63361816 71.79178711 403.89223633 71.10498047 404.15869141 C63.27449679 407.12674708 55.26791326 409.16585223 47.125 411.0625 C46.2594751 411.26520508 45.3939502 411.46791016 44.50219727 411.67675781 C30.07273637 414.88956223 15.97268845 415.78358247 1.25 415.75 C0.35003296 415.74945618 -0.54993408 415.74891235 -1.47717285 415.74835205 C-47.91552764 415.6197168 -93.91013167 400.14695216 -129.875 370.375 C-130.45233887 369.8991748 -131.02967773 369.42334961 -131.62451172 368.93310547 C-143.17434971 359.359677 -153.65677046 349.26004177 -162.875 337.375 C-163.29362305 336.84342285 -163.71224609 336.3118457 -164.14355469 335.76416016 C-177.3338541 318.92183937 -187.16425273 300.28645477 -194.875 280.375 C-195.13361816 279.70839355 -195.39223633 279.04178711 -195.65869141 278.35498047 C-198.62674708 270.52449679 -200.66585223 262.51791326 -202.5625 254.375 C-202.76520508 253.5094751 -202.96791016 252.6439502 -203.17675781 251.75219727 C-206.38956222 237.32273641 -207.28357898 223.22268709 -207.25 208.5 C-207.24945618 207.59970062 -207.24891235 206.69940125 -207.24835205 205.77182007 C-207.20741878 190.98819554 -206.22398575 176.82008514 -202.875 162.375 C-202.56949219 161.00069824 -202.56949219 161.00069824 -202.2578125 159.59863281 C-190.42252688 107.63661494 -156.92405177 60.80938887 -112.0078125 32.234375 C-91.58204006 19.55610458 -70.42196563 10.76483332 -47.0625 5.0625 C-45.57943359 4.69874268 -45.57943359 4.69874268 -44.06640625 4.32763672 C-29.3649283 0.89713024 -15.02780805 -0.03427489 0 0 Z M-43.875 10.375 C-44.75172363 10.58930664 -45.62844727 10.80361328 -46.53173828 11.02441406 C-83.97240557 20.35910411 -114.95131042 39.09860721 -142.875 65.375 C-143.53371094 65.99117187 -144.19242188 66.60734375 -144.87109375 67.2421875 C-173.10635385 94.49932081 -192.02006174 134.07231756 -198.875 172.375 C-199.05015137 173.34695312 -199.22530273 174.31890625 -199.40576172 175.3203125 C-201.01959389 185.27107788 -201.27420468 195.06282185 -201.25 205.125 C-201.24945618 205.9788327 -201.24891235 206.83266541 -201.24835205 207.71237183 C-201.20509375 222.55325766 -200.08946731 236.84788961 -196.875 251.375 C-196.67132813 252.30973145 -196.46765625 253.24446289 -196.2578125 254.20751953 C-184.47240696 306.28700835 -151.33523531 350.51786273 -106.875 379.375 C-75.2586532 398.87628977 -39.0173366 410.10107862 -1.8125 409.8125 C-0.97115509 409.80945862 -0.12981018 409.80641724 0.73703003 409.80328369 C56.23874249 409.50865039 104.07620727 388.06120208 144.125 350.375 C144.78371094 349.75882812 145.44242187 349.14265625 146.12109375 348.5078125 C171.06489724 324.42811306 186.58465671 292.20377954 196.125 259.375 C196.45242188 258.2921875 196.77984375 257.209375 197.1171875 256.09375 C197.92384611 253.1997583 198.55370407 250.32489911 199.125 247.375 C199.25890137 246.71419434 199.39280273 246.05338867 199.53076172 245.37255859 C202.08711612 232.20546435 202.44213273 219.05483826 202.5 205.6875 C202.50776459 204.87372894 202.51552917 204.05995789 202.52352905 203.2215271 C202.64403987 187.18833966 200.75210614 171.62771398 196.3125 156.1875 C195.92348511 154.80727661 195.92348511 154.80727661 195.52661133 153.39916992 C180.22090457 100.24780202 144.59401095 56.31934455 96.28076172 29.54345703 C78.7488837 20.04090118 59.68258036 13.29923349 40.125 9.375 C39.40022461 9.22546875 38.67544922 9.0759375 37.92871094 8.921875 C11.85702422 3.81107541 -18.11249255 3.85623728 -43.875 10.375 Z " fill="#D4D5BC" transform="translate(206.875,-0.375)"/>
<path d="M0 0 C18.65055215 5.71686121 35.05341904 18.76740782 49 32 C50.24231905 33.05081532 51.49140814 34.0937309 52.75 35.125 C56.59405644 38.40695385 59.79225803 42.10309471 63 46 C64.2375 47.48113281 64.2375 47.48113281 65.5 48.9921875 C92.75183562 82.21749963 108.19001486 123.52459403 108.18530273 166.45678711 C108.18747887 168.66605213 108.20566866 170.87480782 108.22460938 173.08398438 C108.27751815 186.11336204 106.8642342 198.69102303 103.75 211.375 C103.53239014 212.26509766 103.31478027 213.15519531 103.09057617 214.07226562 C96.125392 241.72545516 83.00406607 266.9507593 65 289 C64.54979492 289.55316895 64.09958984 290.10633789 63.63574219 290.67626953 C50.41956426 306.82371607 31.42985893 327.27028894 10 332 C12.25065228 327.40223891 15.20804873 325.2743382 19.5 322.75 C57.41976524 299.31100089 80.76199217 257.57378993 91.50048828 215.18603516 C103.35667681 163.2992746 94.11655186 108.00651315 66.58056641 62.66259766 C60.29172441 52.70731383 52.90440768 43.70639217 45 35 C44.39929688 34.32710937 43.79859375 33.65421875 43.1796875 32.9609375 C32.43895905 21.57252693 17.69868694 11.0575611 3.5625 4.375 C1 3 1 3 0 0 Z " fill="#E9EBD6" transform="translate(285,38)"/>
<path d="M0 0 C0.99 0.495 0.99 0.495 2 1 C-1.02630138 4.22805481 -4.20929757 7.01125793 -7.6875 9.75 C-28.00090927 25.85649019 -43.12112845 45.04432956 -55 68 C-55.46913818 68.89936279 -55.46913818 68.89936279 -55.94775391 69.81689453 C-67.46593217 92.22051914 -75.04356966 118.84664713 -75.203125 144.1015625 C-75.21027527 144.85179687 -75.21742554 145.60203125 -75.22479248 146.375 C-75.566483 192.84491125 -64.30803003 234.54843009 -36 272 C-35.34386719 272.87011719 -34.68773437 273.74023438 -34.01171875 274.63671875 C-12.88651847 301.79769053 14.32039435 322.7902863 47.3359375 333.03515625 C50 334 50 334 52 336 C23.37921014 335.90044943 -2.16497411 316.9334338 -22 298 C-23.4300962 296.76222708 -24.86677681 295.53198407 -26.3125 294.3125 C-30.2825499 290.84581021 -33.65127091 287.06355396 -37 283 C-37.64195313 282.23453857 -37.64195313 282.23453857 -38.296875 281.45361328 C-71.7889223 241.41727514 -90.52136775 191.58834298 -86.79785156 139.15332031 C-82.570779 95.43103393 -61.03647901 57.11092973 -32 25 C-30.99453125 23.88625 -30.99453125 23.88625 -29.96875 22.75 C-21.79507528 14.1607147 -10.91325 4.78018389 0 0 Z " fill="#E7EAD5" transform="translate(109,52)"/>
<path d="M0 0 C1.01126953 -0.02900391 2.02253906 -0.05800781 3.06445312 -0.08789062 C10.54085092 -0.15212934 10.54085092 -0.15212934 13.82421875 2.20703125 C16.80891079 6.81662727 16.40731041 10.80620578 16.4375 16.1875 C16.458125 17.09886719 16.47875 18.01023437 16.5 18.94921875 C16.50515625 19.82964844 16.5103125 20.71007812 16.515625 21.6171875 C16.52964355 22.8235083 16.52964355 22.8235083 16.54394531 24.05419922 C16.09626415 26.89053533 15.14435604 28.23584815 13.1875 30.3125 C8.86751555 31.75249482 4.58981907 31.72281541 0.0625 31.9375 C-0.86949219 31.9890625 -1.80148438 32.040625 -2.76171875 32.09375 C-3.64730469 32.13757813 -4.53289062 32.18140625 -5.4453125 32.2265625 C-6.66565186 32.2877124 -6.66565186 32.2877124 -7.91064453 32.35009766 C-9.8125 32.3125 -9.8125 32.3125 -10.8125 31.3125 C-10.98352436 29.10768262 -11.08770348 26.89762179 -11.1640625 24.6875 C-11.18721527 24.02540527 -11.21036804 23.36331055 -11.23422241 22.68115234 C-11.28191056 21.2790506 -11.32713868 19.87686338 -11.37011719 18.47460938 C-11.43722595 16.32129335 -11.51496074 14.16854163 -11.59375 12.015625 C-11.63866266 10.65627105 -11.68295446 9.29689642 -11.7265625 7.9375 C-11.7673291 6.69226563 -11.8080957 5.44703125 -11.85009766 4.1640625 C-11.76829223 -2.04040102 -4.87281069 0.04605681 0 0 Z " fill="#467E57" transform="translate(223.8125,330.6875)"/>
<path d="M0 0 C2.82532005 2.49541741 4.3435372 5.26206047 6.125 8.5625 C9.72983496 14.83506398 13.91025299 19.88493087 19 25 C19.72574219 25.76054687 20.45148438 26.52109375 21.19921875 27.3046875 C31.54446958 37.45673331 48.4074366 47.01391664 63.25390625 46.99609375 C64.28386719 46.97675781 65.31382812 46.95742187 66.375 46.9375 C69.37109375 47.078125 69.37109375 47.078125 72 48 C73.78515625 50.734375 73.78515625 50.734375 75.4375 54.1875 C77.6453297 58.68000651 79.63680096 61.20043625 84.38671875 63.0546875 C89.83620448 64.76980182 95.39549389 65.92037843 101 67 C102.46397217 67.29874023 102.46397217 67.29874023 103.95751953 67.60351562 C113.60313853 69.56230844 123.19147307 71.14314808 133 72 C133 73.65 133 75.3 133 77 C120.13 76.505 120.13 76.505 107 76 C107 75.34 107 74.68 107 74 C105.71351563 73.88269531 104.42703125 73.76539063 103.1015625 73.64453125 C94.98364174 72.72471205 86.17104656 71.08089742 79 67 C76.67347352 63.96005825 75.32326702 61.0524071 73.76171875 57.57421875 C72.19348225 54.73740587 72.19348225 54.73740587 69.01953125 53.95703125 C66.62844834 53.68899643 64.22961697 53.48411466 61.828125 53.3359375 C44.14252119 51.78393553 26.96701062 40.89099853 14.94140625 28.36328125 C8.78949793 20.87453973 0 9.81579685 0 0 Z " fill="#2C6F3C" transform="translate(66,207)"/>
<path d="M0 0 C3.3 0 6.6 0 10 0 C13.50197948 23.16934637 13.50197948 23.16934637 10.375 29.0625 C4.67616473 33.71154982 -1.93694748 33.65677775 -9 33 C-12.0625 32 -12.0625 32 -14 30 C-17.14500262 21.19399266 -17.29910835 11.27235895 -17 2 C-16 1 -16 1 -13.93359375 0.90234375 C-12.69802734 0.91974609 -12.69802734 0.91974609 -11.4375 0.9375 C-10.61121094 0.94652344 -9.78492188 0.95554687 -8.93359375 0.96484375 C-8.29550781 0.97644531 -7.65742188 0.98804688 -7 1 C-6.66114962 3.52019972 -6.32879665 6.04098516 -6 8.5625 C-5.90460938 9.26697266 -5.80921875 9.97144531 -5.7109375 10.69726562 C-5.13333583 15.17367855 -4.90510617 19.48661238 -5 24 C-3.02 23.67 -1.04 23.34 1 23 C0.505 11.615 0.505 11.615 0 0 Z " fill="#49805A" transform="translate(218,258)"/>
<path d="M0 0 C1 1 1 1 1.125 4.5 C1 8 1 8 0 9 C-2.01964199 9.07244053 -4.04167124 9.08377188 -6.0625 9.0625 C-7.71958984 9.04896484 -7.71958984 9.04896484 -9.41015625 9.03515625 C-10.26480469 9.02355469 -11.11945313 9.01195312 -12 9 C-12 9.99 -12 10.98 -12 12 C-11.40832031 11.96519531 -10.81664062 11.93039062 -10.20703125 11.89453125 C-5.24336564 11.72448724 -2.07382624 11.81732325 2 15 C3.71944301 16.71944301 3.29345984 18.90415223 3.375 21.25 C3.42398438 22.20390625 3.47296875 23.1578125 3.5234375 24.140625 C2.76563214 28.28027813 1.43826691 29.59625588 -2 32 C-5.2987133 32.58700934 -8.47564682 32.47424158 -11.8125 32.3125 C-12.69615234 32.28994141 -13.57980469 32.26738281 -14.49023438 32.24414062 C-16.6608891 32.18547428 -18.8306669 32.09579979 -21 32 C-21 29.36 -21 26.72 -21 24 C-16.38 24 -11.76 24 -7 24 C-7 23.01 -7 22.02 -7 21 C-7.88751953 21.05220703 -7.88751953 21.05220703 -8.79296875 21.10546875 C-13.71920277 21.27423044 -17.00379636 21.24691546 -21 18 C-22.27908458 15.44183084 -22.23974681 13.48152006 -22.3125 10.625 C-22.34988281 9.66851562 -22.38726562 8.71203125 -22.42578125 7.7265625 C-22 5 -22 5 -20.34765625 2.6953125 C-17.46054091 0.61044052 -15.66062766 0.41193714 -12.125 0.25 C-11.11695313 0.19328125 -10.10890625 0.1365625 -9.0703125 0.078125 C-2.79619565 -0.08152174 -2.79619565 -0.08152174 0 0 Z " fill="#477F58" transform="translate(231,294)"/>
<path d="M0 0 C2.30548703 2.116789 3.71697834 4.08357704 5.09375 6.88671875 C5.47869629 7.65250244 5.86364258 8.41828613 6.26025391 9.20727539 C6.66937012 10.02574951 7.07848633 10.84422363 7.5 11.6875 C15.84559881 27.94916755 26.59468677 42.21416587 38.91015625 55.6875 C40.68356841 57.64985514 42.38150245 59.64661409 44.0625 61.6875 C47.36969466 65.55037506 51.07920575 68.7725938 55 72 C56.48113281 73.2375 56.48113281 73.2375 57.9921875 74.5 C74.99803019 88.45093103 94.13249413 100.06834227 116 104 C116 104.66 116 105.32 116 106 C117.4540625 106.185625 117.4540625 106.185625 118.9375 106.375 C119.948125 106.58125 120.95875 106.7875 122 107 C122.33 107.66 122.66 108.32 123 109 C100.26935302 110.85556302 76.9896357 94.74617125 60.3125 80.9765625 C47.40114576 69.94084418 35.44449486 58.38592186 25.29541016 44.73974609 C24.03791809 43.0509243 22.7601068 41.37909829 21.48046875 39.70703125 C16.44415353 33.00971952 12.13421445 26.01036759 8.0625 18.6875 C7.60166016 17.86362793 7.14082031 17.03975586 6.66601562 16.19091797 C3.81773466 10.94269656 1.68288388 5.72902124 0 0 Z " fill="#2A6837" transform="translate(38,283)"/>
<path d="M0 0 C0.495 0.99 0.495 0.99 1 2 C-9.07167364 22.27124156 -26.45951865 43.50509682 -44.5625 56.9375 C-45.59479736 57.70682861 -45.59479736 57.70682861 -46.64794922 58.49169922 C-54.77719456 64.44370114 -63.29244003 70.055665 -73 73 C-72.91796875 70.73046875 -72.91796875 70.73046875 -72 68 C-69.75194241 66.5307012 -67.7269851 65.42690066 -65.3125 64.3125 C-39.21682681 51.30060786 -18.66571982 28.62872719 -4.14941406 3.61572266 C-3 2 -3 2 0 0 Z " fill="#296836" transform="translate(369,301)"/>
<path d="M0 0 C1 3 1 3 0.13671875 5.2421875 C-12.8064975 28.75627848 -31.01854247 42.96532419 -56.8125 50.8125 C-58.20679456 51.2137199 -59.60201193 51.6118453 -61 52 C-60.67 49.69 -60.34 47.38 -60 45 C-59.01902344 44.731875 -58.03804688 44.46375 -57.02734375 44.1875 C-42.64353451 40.08220346 -30.212679 34.06055052 -19 24 C-18.08541016 23.22462891 -18.08541016 23.22462891 -17.15234375 22.43359375 C-12.52037319 18.22367062 -9.35566414 13.18401838 -6.10717773 7.88623047 C-4.30228491 4.94818306 -2.61098899 2.28048405 0 0 Z " fill="#2C6F3B" transform="translate(344,206)"/>
<path d="M0 0 C2.54590916 0.36447411 3.70107811 0.63858498 5.36865234 2.65478516 C5.77035645 3.35909668 6.17206055 4.0634082 6.5859375 4.7890625 C7.27042969 5.95501953 7.27042969 5.95501953 7.96875 7.14453125 C8.4328125 7.96308594 8.896875 8.78164063 9.375 9.625 C15.28521349 20.02475085 15.28521349 20.02475085 24 28 C30.78409751 28.79812912 37.42383243 28.82851389 43.4140625 25.27734375 C46.88100674 22.48500196 48.61841788 19.14474637 50 15 C50.99 15 51.98 15 53 15 C50.99541188 21.83382315 48.93907926 27.41934504 43.4375 32.25 C37.65274879 35.19496425 31.15507699 37.05649209 24.75 35.125 C15.90395476 30.73865053 11.22387542 20.77539955 6.5625 12.5625 C5.60827148 10.91217773 5.60827148 10.91217773 4.63476562 9.22851562 C0 1.16870301 0 1.16870301 0 0 Z " fill="#2C6C3A" transform="translate(194,358)"/>
<path d="M0 0 C-4.6651226 4.22740739 -9.38388876 8.33146752 -14.3125 12.25 C-34.37790837 28.65954119 -47.9612072 49.29153201 -60 72 C-60.66 72 -61.32 72 -62 72 C-61.38279926 67.18396389 -59.38534755 63.407553 -57.125 59.1875 C-56.72643799 58.44266357 -56.32787598 57.69782715 -55.91723633 56.93041992 C-45.15377991 37.24623741 -26.14125765 8.43349094 -4.796875 -0.3125 C-2 -1 -2 -1 0 0 Z " fill="#2C6B3A" transform="translate(112,57)"/>
<path d="M0 0 C-0.125 2.8125 -0.125 2.8125 -1 6 C-3.72457485 7.73909033 -5.72482466 9 -9 9 C-9 9.66 -9 10.32 -9 11 C-14.43498918 13.51240066 -19.8137747 15.14855361 -25.625 16.5625 C-26.93645996 16.8867395 -26.93645996 16.8867395 -28.27441406 17.2175293 C-35.14115014 18.87739038 -41.98357809 20.1421528 -49 21 C-49 19.35 -49 17.7 -49 16 C-45.59975639 15.01005566 -42.21385449 14.05229856 -38.7734375 13.2109375 C-26.93346244 10.29857582 -14.70463935 6.49787395 -3.84643555 0.88720703 C-2 0 -2 0 0 0 Z " fill="#317240" transform="translate(282,262)"/>
<path d="M0 0 C6.0873802 -0.7657082 9.43723305 1.70657332 14.25 5 C15.00434326 5.50402344 15.75868652 6.00804687 16.53588867 6.52734375 C41.98477559 23.71743946 60.7389603 45.96155319 75 73 C75.59683594 74.07894531 76.19367188 75.15789062 76.80859375 76.26953125 C78 79 78 79 77 82 C76.47792969 80.9584375 75.95585937 79.916875 75.41796875 78.84375 C60.25621208 49.10795588 39.070896 24.69094359 10.09155273 7.75390625 C6.25447332 5.49258183 2.97221081 3.39005477 0 0 Z " fill="#306D3D" transform="translate(286,43)"/>
<path d="M0 0 C0.1875 3.125 0.1875 3.125 0 6 C-0.66 5.67 -1.32 5.34 -2 5 C-11.88060593 4.39867963 -21.4253767 5.48549092 -31.1875 6.9375 C-32.48236328 7.11990234 -33.77722656 7.30230469 -35.11132812 7.49023438 C-41.64387184 8.35716427 -41.64387184 8.35716427 -48 10 C-48.1875 7.125 -48.1875 7.125 -48 4 C-44.54769994 1.69846662 -42.404348 1.45964922 -38.3125 0.9296875 C-37.65475586 0.84373322 -36.99701172 0.75777893 -36.31933594 0.66921997 C-34.92448534 0.48898994 -33.52911743 0.31272561 -32.13330078 0.14013672 C-30.03389294 -0.12078762 -27.93697941 -0.39725155 -25.83984375 -0.67578125 C-5.04747326 -3.36498217 -5.04747326 -3.36498217 0 0 Z " fill="#2C6F3C" transform="translate(265,145)"/>
<path d="M0 0 C2.7318828 2.73936228 2.98853865 3.77077305 3.1875 7.75 C3.0946875 9.35875 3.0946875 9.35875 3 11 C2.45472656 10.17628906 1.90945312 9.35257813 1.34765625 8.50390625 C-0.72470595 5.78398317 -0.72470595 5.78398317 -3.50390625 5.58984375 C-4.51324219 5.70457031 -5.52257812 5.81929688 -6.5625 5.9375 C-8.38394531 6.13859375 -8.38394531 6.13859375 -10.2421875 6.34375 C-11.82853299 6.55952138 -13.41441251 6.77872727 -15 7 C-16.6072998 7.21269531 -16.6072998 7.21269531 -18.24707031 7.4296875 C-21.89627864 7.91638159 -25.5422184 8.42224121 -29.1875 8.9375 C-30.39414307 9.10693115 -31.60078613 9.2763623 -32.84399414 9.45092773 C-33.98215576 9.62052002 -35.12031738 9.7901123 -36.29296875 9.96484375 C-37.3193042 10.1155835 -38.34563965 10.26632324 -39.40307617 10.42163086 C-42.21760252 10.88466549 -42.21760252 10.88466549 -45 13 C-45.25 10.1875 -45.25 10.1875 -45 7 C-41.8569095 3.81579836 -38.76990337 3.3968812 -34.43359375 2.83203125 C-32.49709961 2.57583008 -32.49709961 2.57583008 -30.52148438 2.31445312 C-29.51347778 2.19082397 -29.51347778 2.19082397 -28.48510742 2.06469727 C-26.46641763 1.81606169 -24.45120624 1.54738976 -22.43554688 1.27539062 C-4.73472475 -0.99754588 -4.73472475 -0.99754588 0 0 Z " fill="#2C6F3B" transform="translate(216,59)"/>
<path d="M0 0 C3.67189781 1.22396594 3.90034135 2.08882785 5.69921875 5.40234375 C6.18583984 6.29244141 6.67246094 7.18253906 7.17382812 8.09960938 C7.67333984 9.03611328 8.17285156 9.97261719 8.6875 10.9375 C9.19861328 11.87013672 9.70972656 12.80277344 10.23632812 13.76367188 C14 20.71314878 14 20.71314878 14 23 C15.051875 23.103125 16.10375 23.20625 17.1875 23.3125 C20.85537073 23.7613653 24.35277274 24.54582161 27.9375 25.4375 C35.87872956 27.34339509 43.8900667 28.17443793 52 29 C52 30.32 52 31.64 52 33 C21.80752189 34.2050213 21.80752189 34.2050213 12.859375 27.36328125 C11.16958179 25.00035613 10.14180712 22.67793201 9 20 C8.23237584 18.48851394 7.45399509 16.98246726 6.66796875 15.48046875 C5.00259841 12.27273291 3.35438196 9.05901925 1.7578125 5.81640625 C1.24951904 4.78688843 1.24951904 4.78688843 0.73095703 3.73657227 C0 2 0 2 0 0 Z " fill="#337441" transform="translate(153,286)"/>
<path d="M0 0 C0 1.65 0 3.3 0 5 C-1.54107422 5.41958984 -1.54107422 5.41958984 -3.11328125 5.84765625 C-15.37794987 9.33192024 -25.21356133 13.46632354 -32.7578125 24.27734375 C-33.16773438 24.84582031 -33.57765625 25.41429688 -34 26 C-34.33 26 -34.66 26 -35 26 C-34.87718023 20.22747066 -33.09394011 16.72092536 -29.4296875 12.28125 C-21.56895546 4.90075561 -10.82182953 -0.43287318 0 0 Z " fill="#2D703C" transform="translate(171,86)"/>
<path d="M0 0 C2.61759636 0.36168767 3.73130761 0.68170079 5.46386719 2.73413086 C5.90375977 3.47026611 6.34365234 4.20640137 6.796875 4.96484375 C7.52197266 6.16463867 7.52197266 6.16463867 8.26171875 7.38867188 C8.75285156 8.22978516 9.24398437 9.07089844 9.75 9.9375 C10.25660156 10.77474609 10.76320312 11.61199219 11.28515625 12.47460938 C15 18.69772364 15 18.69772364 15 21 C22.26 21.99 29.52 22.98 37 24 C37 25.65 37 27.3 37 29 C21.68429897 29.52411144 21.68429897 29.52411144 16 27 C13.29329559 24.40525173 11.76782954 21.28011974 10 18 C9.14404936 16.54981024 8.28149967 15.10350464 7.4140625 13.66015625 C5.58842227 10.61432424 3.76924892 7.56537005 1.9765625 4.5 C1.59580566 3.8503125 1.21504883 3.200625 0.82275391 2.53125 C0 1 0 1 0 0 Z " fill="#2E703D" transform="translate(173,323)"/>
<path d="M0 0 C0.495 0.99 0.495 0.99 1 2 C-0.34631995 5.75578553 -1.29024603 7.58987568 -4.78515625 9.609375 C-13.84987643 12.76420014 -22.33718668 15.42012232 -32 15 C-32 13.68 -32 12.36 -32 11 C-31.42145264 10.84442627 -30.84290527 10.68885254 -30.24682617 10.52856445 C-14.70845927 6.38899076 -14.70845927 6.38899076 0 0 Z " fill="#327340" transform="translate(269,301)"/>
<path d="M0 0 C1.01126953 -0.02900391 2.02253906 -0.05800781 3.06445312 -0.08789062 C10.51300531 -0.15189008 10.51300531 -0.15189008 13.87109375 2.16015625 C15.4517956 4.74462723 15.51848467 6.333638 15.1875 9.3125 C14.1975 8.6525 13.2075 7.9925 12.1875 7.3125 C9.57460506 6.94500611 9.57460506 6.94500611 6.64453125 6.8984375 C5.57138672 6.85976563 4.49824219 6.82109375 3.39257812 6.78125 C2.27302734 6.7503125 1.15347656 6.719375 0 6.6875 C-1.13115234 6.64882813 -2.26230469 6.61015625 -3.42773438 6.5703125 C-6.2224925 6.47597467 -9.01724278 6.39038348 -11.8125 6.3125 C-11.855221 4.64638095 -11.85313832 2.97867115 -11.8125 1.3125 C-9.38793794 -1.11206206 -3.25350444 0.03075146 0 0 Z " fill="#2E703D" transform="translate(223.8125,330.6875)"/>
<path d="M0 0 C0.66 0 1.32 0 2 0 C2 0.66 2 1.32 2 2 C4.9260522 2.82610075 7.62491769 3.16600717 10.66015625 3.28125 C11.53607422 3.31863281 12.41199219 3.35601562 13.31445312 3.39453125 C15.15038489 3.46499345 16.98632242 3.53530532 18.82226562 3.60546875 C19.69689453 3.64285156 20.57152344 3.68023437 21.47265625 3.71875 C22.66773804 3.76418945 22.66773804 3.76418945 23.88696289 3.81054688 C26 4 26 4 29 5 C29 6.65 29 8.3 29 10 C25.33144728 10.06738158 21.66879273 10.051133 18 10 C16.77667969 9.98453125 15.55335938 9.9690625 14.29296875 9.953125 C13.06191406 9.90671875 11.83085937 9.8603125 10.5625 9.8125 C9.40878906 9.77769531 8.25507813 9.74289063 7.06640625 9.70703125 C4 9 4 9 1.58984375 6.69921875 C0 4 0 4 0 0 Z " fill="#286C38" transform="translate(192,179)"/>
<path d="M0 0 C3.93260944 -0.07421454 7.86494722 -0.12863136 11.7980957 -0.16479492 C13.79327701 -0.18728333 15.78826213 -0.22540198 17.78320312 -0.26367188 C19.03681641 -0.27333984 20.29042969 -0.28300781 21.58203125 -0.29296875 C22.73936768 -0.3086792 23.8967041 -0.32438965 25.08911133 -0.34057617 C28 0 28 0 29.8894043 1.3503418 C31.41396158 3.61489084 31.2162227 5.33325341 31 8 C30.46536133 7.67854004 29.93072266 7.35708008 29.37988281 7.02587891 C26.44981908 5.76283748 24.1086981 5.67966759 20.921875 5.5859375 C19.76171875 5.54726562 18.6015625 5.50859375 17.40625 5.46875 C16.1996875 5.4378125 14.993125 5.406875 13.75 5.375 C12.52796875 5.33632812 11.3059375 5.29765625 10.046875 5.2578125 C7.0314006 5.16357892 4.01593172 5.07796545 1 5 C0.67 3.35 0.34 1.7 0 0 Z " fill="#266B36" transform="translate(221,81)"/>
<path d="M0 0 C0 1.98 0 3.96 0 6 C-1.10859375 6.04898437 -2.2171875 6.09796875 -3.359375 6.1484375 C-4.82294065 6.22349215 -6.28648112 6.29903881 -7.75 6.375 C-8.84441406 6.42140625 -8.84441406 6.42140625 -9.9609375 6.46875 C-15.19985577 6.75450918 -18.29068268 7.29068268 -22 11 C-22.48748556 5.63765884 -22.48748556 5.63765884 -20.3515625 2.84375 C-17.45958476 0.57628573 -15.76501196 0.41671811 -12.125 0.25 C-11.11695313 0.19328125 -10.10890625 0.1365625 -9.0703125 0.078125 C-6.04523269 0.00115096 -3.0259161 -0.01806517 0 0 Z " fill="#2D6F3C" transform="translate(231,294)"/>
<path d="M0 0 C2.30548703 2.116789 3.71697834 4.08357704 5.09375 6.88671875 C5.47869629 7.65250244 5.86364258 8.41828613 6.26025391 9.20727539 C6.66937012 10.02574951 7.07848633 10.84422363 7.5 11.6875 C13.86122743 24.08255613 21.46989493 35.39751 30.5390625 45.984375 C32.02543596 48.03509346 32.58715846 49.52295074 33 52 C28.7557458 50.5852486 27.00239859 47.47733239 24.4375 44 C23.90737305 43.28521484 23.37724609 42.57042969 22.83105469 41.83398438 C0 10.49081295 0 10.49081295 0 0 Z " fill="#316D3E" transform="translate(38,283)"/>
<path d="M0 0 C1.98 0 3.96 0 6 0 C7 1 7 1 7.1328125 3.90625 C7.12894531 5.68515625 7.12894531 5.68515625 7.125 7.5 C7.12757813 8.6859375 7.13015625 9.871875 7.1328125 11.09375 C7 14 7 14 6 15 C4.02 15 2.04 15 0 15 C0 10.05 0 5.1 0 0 Z " fill="#EDF3E1" transform="translate(223,339)"/>
<path d="M0 0 C1.40606022 3.75004596 0.56588061 5.84470839 -0.94921875 9.46484375 C-1.38556641 10.51220703 -1.82191406 11.55957031 -2.27148438 12.63867188 C-2.73876953 13.72728516 -3.20605469 14.81589844 -3.6875 15.9375 C-4.13544922 17.02224609 -4.58339844 18.10699219 -5.04492188 19.22460938 C-7.22159266 24.37954877 -9.1865962 28.82020569 -13 33 C-13.66 33 -14.32 33 -15 33 C-13.37536729 27.58163038 -11.01901171 22.6382326 -8.5625 17.5625 C-5.30411267 10.81643198 -5.30411267 10.81643198 -2.27734375 3.96484375 C-1 1 -1 1 0 0 Z " fill="#316D3D" transform="translate(384,267)"/>
<path d="M0 0 C1.27763168 3.83289503 0.54919466 5.5471655 -0.921875 9.19140625 C-2 11 -2 11 -4.8125 12.5 C-7.94326463 12.99110033 -10.83692643 13.15062255 -14 13 C-14 11.35 -14 9.7 -14 8 C-13.30132812 7.79503906 -12.60265625 7.59007812 -11.8828125 7.37890625 C-10.97273437 7.10949219 -10.06265625 6.84007812 -9.125 6.5625 C-8.22007812 6.29566406 -7.31515625 6.02882813 -6.3828125 5.75390625 C-2.92356917 4.7360213 -2.92356917 4.7360213 -0.875 1.9375 C-0.58625 1.298125 -0.2975 0.65875 0 0 Z " fill="#31723F" transform="translate(257,336)"/>
<path d="M0 0 C1.97909398 -0.02686553 3.95828971 -0.04633375 5.9375 -0.0625 C7.03964844 -0.07410156 8.14179688 -0.08570313 9.27734375 -0.09765625 C12 0 12 0 13 1 C13 2.65 13 4.3 13 6 C8.71 5.34 4.42 4.68 0 4 C0 2.68 0 1.36 0 0 Z " fill="#2A6D3A" transform="translate(220,308)"/>
<path d="M0 0 C4.62 0.66 9.24 1.32 14 2 C14 2.99 14 3.98 14 5 C9.38 5 4.76 5 0 5 C0 3.35 0 1.7 0 0 Z " fill="#286C38" transform="translate(210,319)"/>
<path d="M0 0 C0 1.98 0 3.96 0 6 C-2.97 6 -5.94 6 -9 6 C-8.67 4.35 -8.34 2.7 -8 1 C-5.07175348 0.02391783 -3.04386724 -0.08226668 0 0 Z " fill="#2A6D39" transform="translate(211,259)"/>
<path d="M0 0 C2.97 0 5.94 0 9 0 C9 1.65 9 3.3 9 5 C6.03 5 3.06 5 0 5 C0 3.35 0 1.7 0 0 Z " fill="#266B36" transform="translate(219,258)"/>
<path d="M0 0 C0.33 0 0.66 0 1 0 C1.04241723 2.33294775 1.04092937 4.66702567 1 7 C-0.54236225 8.54236225 -1.98456679 8.16936074 -4.125 8.1875 C-8.43768363 8.15299853 -11.93049579 7.38536313 -16 6 C-16 5.67 -16 5.34 -16 5 C-10.72 5 -5.44 5 0 5 C0 3.35 0 1.7 0 0 Z " fill="#5B8D68" transform="translate(231,295)"/>
<path d="M0 0 C2.31 0 4.62 0 7 0 C7.042721 1.66611905 7.04063832 3.33382885 7 5 C6 6 6 6 3.5 6.125 C1 6 1 6 0 5 C-0.04063832 3.33382885 -0.042721 1.66611905 0 0 Z " fill="#286C38" transform="translate(213,282)"/>
<path d="M0 0 C0.042721 1.66611905 0.04063832 3.33382885 0 5 C-1 6 -1 6 -4.0625 6.0625 C-5.5165625 6.0315625 -5.5165625 6.0315625 -7 6 C-7 4.35 -7 2.7 -7 1 C-4 0 -4 0 0 0 Z " fill="#276B37" transform="translate(230,354)"/>
<path d="M0 0 C1.31354934 3.94064801 0.30975532 5.3016095 -1.3125 9.0625 C-1.98732422 10.65771484 -1.98732422 10.65771484 -2.67578125 12.28515625 C-4 15 -4 15 -6 17 C-5.57025201 10.9835282 -4.47699883 4.47699883 0 0 Z " fill="#326F3F" transform="translate(49,131)"/>
<path d="M0 0 C1.19935725 3.47651527 0.80128318 5.69868278 -0.25 9.1875 C-0.62898437 10.50814453 -0.62898437 10.50814453 -1.015625 11.85546875 C-1.34046875 12.56316406 -1.6653125 13.27085937 -2 14 C-2.99 14.33 -3.98 14.66 -5 15 C-4.43174347 9.45949887 -2.37113483 4.96284034 0 0 Z " fill="#387746" transform="translate(250,358)"/>
<path d="M0 0 C5.75 1.875 5.75 1.875 8 3 C7.67 3.99 7.34 4.98 7 6 C4.0625 4.6875 4.0625 4.6875 1 3 C0.67 2.01 0.34 1.02 0 0 Z " fill="#DEE3CE" transform="translate(285,38)"/>
<path d="M0 0 C0.99 0 1.98 0 3 0 C2.34 2.31 1.68 4.62 1 7 C0.01 7 -0.98 7 -2 7 C-1.34 4.69 -0.68 2.38 0 0 Z " fill="#387746" transform="translate(345,200)"/>
</svg>
